<mxfile host="app.diagrams.net" modified="2024-06-29T03:16:21.156Z" agent="Mozilla/5.0 (X11; Linux x86_64; rv:126.0) Gecko/20100101 Firefox/126.0" version="24.6.4" etag="9-COtcHc1v-c9-I4YEF4" type="github">
  <diagram name="ページ1" id="i2WC8QcKXgFdD_uWCcuV">
    <mxGraphModel>
      <root>
        <mxCell id="0" />
        <mxCell id="1" parent="0" />
      </root>
    </mxGraphModel>
  </diagram>
</mxfile>
